# xmcd
#
# Track frame offsets:
#	150
#	12457
#	23512
#	38270
#	53315
#	63745
#	75677
#	87915
#	100432
#	111295
#	130215
#	140580
#	156542
#	167090
#	179317
#	192672
#	207637
#
# Disc length: 2921 seconds
# Revision: 0
# Processed by: cddbd v1.5.2PL0 Copyright (c) Steve Scherf et al.
# Submitted via: dBpowerAMP V12.0
#
DISCID=eb0b6711
DTITLE=Aretha Franklin - 30 Greatest Hits [CD1]
DYEAR=1985
DGENRE=Soul
TTITLE0=I Never Loved A Man (The Way I Love You)
TTITLE1=Respect
TTITLE2=Do Right Woman, Do Right Man
TTITLE3=Dr. Feelgood
TTITLE4=Save Me
TTITLE5=Baby I Love You
TTITLE6=(You Make Me Feel Like) A Natural Woman
TTITLE7=Chain Of Fools
TTITLE8=Since You've Been Gone
TTITLE9=Ain't No Way
TTITLE10=Think
TTITLE11=I Say A Little Prayer
TTITLE12=The House That Jack Built
TTITLE13=See Saw
TTITLE14=The Weight
TTITLE15=Share Your Love With Me
TTITLE16=Eleanor Rigby
EXTD=
EXTT0=
EXTT1=
EXTT2=
EXTT3=
EXTT4=
EXTT5=
EXTT6=
EXTT7=
EXTT8=
EXTT9=
EXTT10=
EXTT11=
EXTT12=
EXTT13=
EXTT14=
EXTT15=
EXTT16=
PLAYORDER=
